<svg width="100%" height="100%" viewBox="0 0 521 521" version="1.1" xmlns="http://www.w3.org/2000/svg" xmlns:xlink="http://www.w3.org/1999/xlink" xml:space="preserve" xmlns:serif="http://www.serif.com/" style="fill-rule:evenodd;clip-rule:evenodd;stroke-linejoin:round;stroke-miterlimit:2;">
<style>
    #fav_bg{ fill: #2e234c } 
    #fav_logo{ fill: #5cff23 }
    #fav_stroke{ fill: #2e234c }   
    @media (prefers-color-scheme: light) {
     #fav_bg{ fill: #9F1463 } 
     #fav_logo{ fill: #F4FCF3 }
     #fav_stroke{ fill: #9F1463 }           
    }
</style>
<g id="favicon">
    <circle id="fav_bg" cx="260.673" cy="260.94" r="260"/>
    <path id="fav_logo" d="M76.456,211.095c0,-0 54.221,54.221 54.221,54.221c0,-0 69.374,-69.374 69.374,-69.374l-119.219,-119.219c-4.359,-4.358 -5.663,-10.913 -3.304,-16.608c2.359,-5.695 7.917,-9.409 14.081,-9.409l78.137,0c4.042,0 7.918,1.606 10.777,4.464c-0,0 80.15,80.15 80.15,80.15l80.15,-80.15c2.858,-2.858 6.734,-4.464 10.776,-4.464l78.138,0c6.164,0 11.721,3.714 14.08,9.409c2.359,5.695 1.055,12.25 -3.304,16.608l-119.219,119.219l69.374,69.374l54.221,-54.221c4.359,-4.359 10.914,-5.663 16.609,-3.304c5.695,2.359 9.408,7.916 9.408,14.08l-0,78.138c-0,4.042 -1.606,7.918 -4.464,10.776l-155.924,155.924c-2.858,2.858 -6.735,4.464 -10.777,4.464l-78.137,0c-4.042,0 -7.919,-1.606 -10.777,-4.464l-155.924,-155.924c-2.858,-2.858 -4.464,-6.734 -4.464,-10.776l0,-78.138c0,-6.164 3.714,-11.721 9.409,-14.08c5.694,-2.359 12.25,-1.055 16.608,3.304Zm184.217,45.469c-0,-0 -69.374,69.373 -69.374,69.373c0,0 69.374,69.374 69.374,69.374c-0,0 69.373,-69.374 69.373,-69.374l-69.373,-69.373Z"/>
    <path id="fav_stroke" d="M130.677,231.375l35.433,-35.433l-102.248,-102.248c-11.223,-11.223 -14.58,-28.101 -8.507,-42.764c6.074,-14.663 20.382,-24.224 36.254,-24.224l78.137,0c10.407,0 20.388,4.135 27.747,11.494l63.18,63.179l63.179,-63.179c7.359,-7.359 17.34,-11.494 27.747,-11.494l78.138,0c15.871,0 30.179,9.561 36.253,24.224c6.074,14.663 2.716,31.541 -8.506,42.764l-102.248,102.248c-0,0 35.432,35.433 35.432,35.433l37.25,-37.251c11.223,-11.222 28.101,-14.58 42.764,-8.506c14.663,6.074 24.224,20.382 24.224,36.253l-0,78.138c-0,10.407 -4.134,20.388 -11.493,27.747l-155.924,155.924c-7.359,7.359 -17.34,11.493 -27.748,11.493l-78.137,0c-10.407,0 -20.388,-4.134 -27.747,-11.493l-155.924,-155.924c-7.359,-7.359 -11.494,-17.34 -11.494,-27.747l0,-78.138c0,-15.871 9.561,-30.179 24.224,-36.253c14.663,-6.074 31.541,-2.716 42.764,8.506l37.25,37.251Zm52.403,-52.403c-0.275,0.275 -0.543,0.556 -0.804,0.844c0.291,-0.271 0.58,-0.532 0.866,-0.783l16.909,16.909c-0,0 -69.374,69.374 -69.374,69.374c0,-0 -54.221,-54.221 -54.221,-54.221c-4.358,-4.359 -10.914,-5.663 -16.608,-3.304c-5.695,2.359 -9.409,7.916 -9.409,14.08l0,78.138c0,4.042 1.606,7.918 4.464,10.776l155.924,155.924c2.858,2.858 6.735,4.464 10.777,4.464l78.137,0c4.042,0 7.919,-1.606 10.777,-4.464l155.924,-155.924c2.858,-2.858 4.464,-6.734 4.464,-10.776l-0,-78.138c-0,-6.164 -3.713,-11.721 -9.408,-14.08c-5.695,-2.359 -12.25,-1.055 -16.609,3.304l-54.221,54.221l-69.374,-69.374l119.219,-119.219c4.359,-4.358 5.663,-10.913 3.304,-16.608c-2.359,-5.695 -7.916,-9.409 -14.08,-9.409l-78.138,0c-4.042,0 -7.918,1.606 -10.776,4.464l-80.15,80.15c-0,0 -80.15,-80.15 -80.15,-80.15c-2.859,-2.858 -6.735,-4.464 -10.777,-4.464l-78.137,0c-6.164,0 -11.722,3.714 -14.081,9.409c-2.359,5.695 -1.055,12.25 3.304,16.608l102.248,102.249Zm77.593,77.592l69.373,69.373c0,0 -69.373,69.374 -69.373,69.374c-0,0 -69.374,-69.374 -69.374,-69.374c0,0 69.374,-69.373 69.374,-69.373Zm-0,104.806l35.432,-35.433l-35.432,-35.432l-35.433,35.432l35.433,35.433Z"/>
</g>
</svg>