<?xml version="1.0" standalone="no"?>
<!DOCTYPE svg PUBLIC "-//W3C//DTD SVG 20010904//EN"
 "http://www.w3.org/TR/2001/REC-SVG-20010904/DTD/svg10.dtd">
<svg version="1.0" xmlns="http://www.w3.org/2000/svg"
 width="700.000000pt" height="700.000000pt" viewBox="0 0 700.000000 700.000000"
 preserveAspectRatio="xMidYMid meet">
<metadata>
Created by potrace 1.14, written by Peter Selinger 2001-2017
</metadata>
<g transform="translate(0.000000,700.000000) scale(0.100000,-0.100000)"
fill="#000000" stroke="none">
<path d="M3330 6984 c-456 -31 -843 -122 -1224 -288 l-128 -56 -407 0 c-328 0
-418 -3 -464 -15 -237 -62 -401 -270 -401 -510 1 -118 44 -245 109 -323 l26
-32 -84 -107 c-408 -522 -647 -1104 -729 -1778 -8 -67 -13 -216 -13 -380 0
-284 9 -390 51 -625 161 -892 665 -1686 1405 -2217 424 -303 916 -510 1424
-598 237 -41 348 -50 610 -49 341 0 573 29 880 109 997 260 1821 942 2270
1879 572 1191 411 2629 -409 3660 -72 91 -78 101 -65 120 87 137 107 189 116
303 20 252 -153 490 -398 548 -51 12 -143 15 -470 15 l-406 0 -84 39 c-300
138 -691 246 -1039 285 -135 16 -466 27 -570 20z m-960 -688 c19 -10 282 -265
585 -567 l550 -549 560 559 c558 557 560 559 613 570 78 16 1101 15 1156 -1
99 -30 163 -147 136 -248 -11 -41 -80 -113 -833 -868 l-822 -822 467 -467 468
-468 382 382 c323 321 389 383 423 392 107 29 198 -8 246 -101 18 -35 19 -67
19 -614 0 -491 -2 -581 -15 -608 -8 -17 -502 -518 -1097 -1113 -939 -937
-1088 -1083 -1123 -1092 -56 -15 -1100 -15 -1163 0 -45 11 -102 66 -1134 1098
-942 942 -1088 1091 -1097 1126 -7 26 -11 232 -11 596 l0 555 26 53 c32 64 82
99 152 108 98 11 101 9 517 -407 l380 -380 467 467 468 468 -815 815 c-570
570 -819 826 -830 852 -33 82 -7 194 57 240 68 48 67 48 668 45 529 -2 567 -3
600 -21z"/>
<path d="M3030 3085 l-465 -465 468 -468 467 -467 467 467 468 468 -465 465
c-256 256 -467 465 -470 465 -3 0 -214 -209 -470 -465z"/>
</g>
</svg>
