<?xml version="1.0" encoding="UTF-8" standalone="no"?><!DOCTYPE svg PUBLIC "-//W3C//DTD SVG 1.1//EN" "http://www.w3.org/Graphics/SVG/1.1/DTD/svg11.dtd"><svg width="100%" height="100%" viewBox="0 0 1 1" version="1.1" xmlns="http://www.w3.org/2000/svg" xmlns:xlink="http://www.w3.org/1999/xlink" xml:space="preserve" xmlns:serif="http://www.serif.com/" style="fill-rule:evenodd;clip-rule:evenodd;stroke-linejoin:round;stroke-miterlimit:2;"><rect id="Artboard1" x="-3071.85" y="-353.743" width="3240" height="1920" style="fill:none;"/><g id="Artboard11" serif:id="Artboard1"><g id="favicon"></g><g id="strongale_lighticon"></g><g id="icon"></g><path id="mini-logo" d="M0.062,0.381c-0,0 0.129,0.129 0.129,0.129c-0,0 0.165,-0.165 0.165,-0.165l-0.284,-0.283c-0.01,-0.01 -0.013,-0.026 -0.008,-0.04c0.006,-0.013 0.019,-0.022 0.034,-0.022l0.186,0c0.009,0 0.019,0.004 0.025,0.011c0,-0 0.191,0.19 0.191,0.19l0.191,-0.19c0.006,-0.007 0.016,-0.011 0.025,-0.011l0.186,0c0.015,0 0.028,0.009 0.034,0.022c0.005,0.014 0.002,0.03 -0.008,0.04l-0.284,0.283l0.165,0.165l0.129,-0.129c0.01,-0.01 0.026,-0.013 0.04,-0.007c0.013,0.005 0.022,0.018 0.022,0.033l-0,0.186c-0,0.01 -0.004,0.019 -0.011,0.026l-0.37,0.37c-0.007,0.007 -0.016,0.011 -0.026,0.011l-0.186,0c-0.01,0 -0.019,-0.004 -0.026,-0.011l-0.37,-0.37c-0.007,-0.007 -0.011,-0.016 -0.011,-0.026l-0,-0.186c0,-0.015 0.009,-0.028 0.022,-0.033c0.014,-0.006 0.03,-0.003 0.04,0.007Zm0.438,0.109c-0,-0 -0.165,0.165 -0.165,0.165c0,-0 0.165,0.165 0.165,0.165c0,-0 0.165,-0.165 0.165,-0.165l-0.165,-0.165Z" style="fill:#5cff23;"/></g></svg>