<?xml version="1.0" encoding="UTF-8" standalone="no"?><!DOCTYPE svg PUBLIC "-//W3C//DTD SVG 1.1//EN" "http://www.w3.org/Graphics/SVG/1.1/DTD/svg11.dtd"><svg width="100%" height="100%" viewBox="0 0 401 284" version="1.1" xmlns="http://www.w3.org/2000/svg" xmlns:xlink="http://www.w3.org/1999/xlink" xml:space="preserve" xmlns:serif="http://www.serif.com/" style="fill-rule:evenodd;clip-rule:evenodd;stroke-linejoin:round;stroke-miterlimit:2;"><path d="M200.888,0.54c110.383,0 200,63.372 200,141.429c-0,78.057 -89.617,141.43 -200,141.43c-110.383,-0 -200,-63.373 -200,-141.43c-0,-78.057 89.617,-141.429 200,-141.429Zm77.526,185.692c5.204,1.676 14.281,-2.907 15.823,-15.914c0.481,-4.061 0.818,-5.16 2.782,-8.086c1.235,-1.841 2.928,-4.588 4.163,-5.835c1.564,-1.58 -0.044,-9.533 0.577,-11.586c1.412,-4.666 -3.649,-15.904 -11.08,-19.818c-6.099,-3.212 -7.628,-6.876 -9.002,-7.371c-10.509,-3.795 -1.671,-7.524 -18.528,-10.365c-1.833,-0.309 -5.945,-3.308 -10.78,-3.928c-5.814,-0.745 -12.463,0.918 -14.667,1.141c-4.472,0.452 -8.738,-4.443 -13.181,-5.085c-2.459,-0.355 -5.141,-0.546 -7.286,-1.269c-2.852,-0.962 -6.475,-2.01 -9.438,-2.866c-5.448,-1.573 -6.947,-3.234 -12.579,-3.867c-4.559,-0.512 -12.409,-1.919 -16.912,-1.008c-3.385,0.684 -6.683,1.139 -10.148,0.789c-2.395,-0.243 -7.143,3.733 -9.474,3.059c-6.195,-1.789 -16.642,4.282 -22.488,1.749c-3.053,-1.323 -17.372,0.616 -20.997,5.889c-3.432,4.992 -11.791,6.492 -13.484,10.194c-0.981,2.144 2.739,6.895 2.739,7.541c0,2.258 -3.769,7.925 -4.483,9.37c-0.5,1.01 -0.133,6.881 1.765,10.718c0.445,0.899 -0.344,3.758 0.35,4.46c1.293,1.308 -1.028,9.046 0.536,10.627c1.697,1.716 3.321,3.816 5.029,5.543c0.873,0.883 4.662,2.836 5.482,3.251c3.209,1.622 6.738,4.054 10.594,5.167c0.418,0.121 1.403,0.46 1.648,0.709c0.592,0.598 1.51,0.776 2.103,1.375c2.915,2.947 5.681,5.985 8.944,8.46c1.396,1.058 7.211,1.625 8.246,2.671c1.79,1.81 5.018,5.551 8.004,6.557c3.646,1.229 4.028,4.135 7.703,2.936c4.743,-1.547 10.371,0.546 10.507,0.684c0.641,0.647 16.81,-1.433 18.291,-1.422c4.521,0.032 11.676,2.564 15.878,2.564c2.642,-0 15.684,-2.637 16.986,-1.321c0.706,0.715 6.93,0.045 8.001,0.477c1.046,0.422 9.645,-2.524 20.499,1.298c3.341,1.176 8.011,-4.72 14.943,-6.483c4.901,-1.246 10.73,-1.715 12.934,-1.005Z"/></svg>