<?xml version="1.0" encoding="UTF-8" standalone="no"?><!DOCTYPE svg PUBLIC "-//W3C//DTD SVG 1.1//EN" "http://www.w3.org/Graphics/SVG/1.1/DTD/svg11.dtd"><svg width="100%" height="100%" viewBox="0 0 401 284" version="1.1" xmlns="http://www.w3.org/2000/svg" xmlns:xlink="http://www.w3.org/1999/xlink" xml:space="preserve" xmlns:serif="http://www.serif.com/" style="fill-rule:evenodd;clip-rule:evenodd;stroke-linejoin:round;stroke-miterlimit:2;"><path d="M200.888,0.54c110.383,0 200,63.372 200,141.429c-0,78.057 -89.617,141.43 -200,141.43c-110.383,-0 -200,-63.373 -200,-141.43c-0,-78.057 89.617,-141.429 200,-141.429Zm75.978,182.295c2.678,-0.837 5.575,-6.632 14.502,-11.639c4.62,-2.591 2.125,-5.039 5.368,-9.515c1.289,-1.779 3.028,-5.006 4.258,-6.239c1.558,-1.562 0.921,-9.364 0.574,-11.456c-0.469,-2.831 -3.095,-5.651 -3.501,-8.509c-0.823,-5.789 -2.354,-8.189 -6.89,-11.983c-0.033,-0.027 -12.631,-5.771 -12.661,-5.8c-12.266,-11.498 -7.414,-12.837 -27.836,-15.929c-4.031,-0.61 -8.893,1.93 -12.914,2.334c-4.454,0.447 -8.703,-4.393 -13.128,-5.027c-2.45,-0.352 -5.121,-0.541 -7.258,-1.256c-2.84,-0.95 -8.238,0.214 -11.164,-0.715c-5.397,-1.716 -4.648,-6.31 -10.602,-5.088c-4.476,0.919 -9.258,-2.693 -13.743,-1.793c-3.372,0.677 -12.033,0.452 -15.484,0.106c-2.386,-0.24 -4.971,1.983 -7.292,1.317c-6.171,-1.769 -15.47,2.361 -22.432,4.053c-3.22,0.783 -18.868,-0.163 -20.913,5.823c-1.688,4.945 -8.542,3.565 -9.515,7.47c-0.158,0.634 -4.572,3.949 -4.572,4.587c-0,2.233 -1.185,14.169 -1.55,15.266c-1.404,4.227 1.885,13.791 2.576,14.485c1.288,1.293 -2.669,7.522 0.534,10.508c4.697,4.378 9.652,8.284 10.469,8.694c3.196,1.604 6.711,4.008 10.552,5.11c0.417,0.119 3.145,1.467 3.736,2.06c2.903,2.914 8.86,8.203 11.839,10.967c3.16,2.932 10.281,5.527 13.255,6.522c3.632,1.215 4.012,4.088 7.673,2.903c4.724,-1.53 12.956,2.622 18.678,3.17c6.31,0.604 7.369,-3.11 8.844,-3.1c4.503,0.032 14.108,-2.249 18.292,-2.249c2.633,-0 13.754,2.638 15.602,2.678c3.592,0.078 6.843,0.234 7.97,0.472c3.285,0.695 9.82,6.418 18.668,-0.788c5.828,-4.747 22.755,-5.779 28.065,-7.439Z"/></svg>