<?xml version="1.0" encoding="UTF-8" standalone="no"?><!DOCTYPE svg PUBLIC "-//W3C//DTD SVG 1.1//EN" "http://www.w3.org/Graphics/SVG/1.1/DTD/svg11.dtd"><svg width="100%" height="100%" viewBox="0 0 401 284" version="1.1" xmlns="http://www.w3.org/2000/svg" xmlns:xlink="http://www.w3.org/1999/xlink" xml:space="preserve" xmlns:serif="http://www.serif.com/" style="fill-rule:evenodd;clip-rule:evenodd;stroke-linejoin:round;stroke-miterlimit:2;"><path d="M200.888,0.54c110.383,0 200,63.372 200,141.429c-0,78.057 -89.617,141.43 -200,141.43c-110.383,-0 -200,-63.373 -200,-141.43c-0,-78.057 89.617,-141.429 200,-141.429Zm77.416,183.589c2.679,-0.83 8.789,-6.554 15.911,-13.793c3.635,-3.694 4.145,-3.963 3.875,-9.409c-0.138,-2.794 1.673,-4.8 2.903,-6.021c1.559,-1.548 0.922,-9.276 0.575,-11.348c-0.47,-2.805 0.037,-5.782 -0.37,-8.613c-0.823,-5.735 -2.842,-15.617 -8.831,-15.389c-5.548,0.21 -14.685,-3.091 -17.549,-8.61c-7.959,-15.337 -7.365,-6.431 -24.165,-9.214c-4.022,-0.666 -8.897,1.912 -12.92,2.312c-4.457,0.443 -8.708,-4.352 -13.135,-4.98c-2.451,-0.348 -5.124,-0.536 -7.262,-1.244c-2.841,-0.941 -5.623,-2.254 -8.575,-3.092c-5.429,-1.542 -8.334,-1.226 -13.946,-1.845c-4.543,-0.502 -11.785,-3.537 -16.273,-2.645c-3.374,0.67 -7.06,1.734 -10.512,1.391c-2.387,-0.237 -6.687,0.736 -9.01,0.076c-6.174,-1.752 -16.111,4.535 -22.443,4.015c-4.885,-0.4 -7.015,1.876 -13.099,4.388c-3.242,1.339 -9.109,1.456 -9.82,3.517c-1.69,4.899 -9.148,5.187 -9.401,9.163c-0.233,3.657 -2.139,13.492 -3.097,14.762c-1.736,2.301 -2.353,6.153 1.179,8.521c2.599,1.742 -1.435,5.539 -0.743,6.227c1.289,1.281 -0.035,9.467 1.524,11.016c1.691,1.68 3.309,3.737 5.011,5.429c0.87,0.864 4.646,2.778 5.463,3.184c3.198,1.588 5.362,6.685 9.205,7.776c0.417,0.119 7.741,7 8.332,7.587c2.905,2.887 12.858,1.617 13.89,2.642c1.783,1.772 5,5.437 7.976,6.423c3.633,1.203 4.014,4.05 7.676,2.875c4.727,-1.516 15.106,1.563 15.242,1.697c0.638,0.635 10.819,-1.637 12.295,-1.627c4.19,0.029 14.568,2.691 19.289,2.36c0.355,-0.024 0.677,-0.066 0.963,-0.127c11.812,-2.52 19.825,2.188 24.414,2.336c5.627,0.182 10.233,-5.41 15.898,-4.458c4.134,0.695 6.993,-3.492 13.32,-4.977c5.658,-1.329 13.701,0.471 16.21,-0.305Z"/></svg>