<?xml version="1.0" encoding="UTF-8" standalone="no"?><!DOCTYPE svg PUBLIC "-//W3C//DTD SVG 1.1//EN" "http://www.w3.org/Graphics/SVG/1.1/DTD/svg11.dtd"><svg width="100%" height="100%" viewBox="0 0 401 284" version="1.1" xmlns="http://www.w3.org/2000/svg" xmlns:xlink="http://www.w3.org/1999/xlink" xml:space="preserve" xmlns:serif="http://www.serif.com/" style="fill-rule:evenodd;clip-rule:evenodd;stroke-linejoin:round;stroke-miterlimit:2;"><path d="M200.888,0.54c110.383,0 200,63.372 200,141.429c-0,78.057 -89.617,141.43 -200,141.43c-110.383,-0 -200,-63.373 -200,-141.43c-0,-78.057 89.617,-141.429 200,-141.429Zm77.116,186.18c2.671,-0.852 8.559,-6.938 15.864,-14.173c3.21,-3.178 -0.614,-5.427 2.622,-9.983c1.286,-1.81 3.627,-8.642 4.854,-9.897c1.554,-1.59 -0.108,-13.577 -0.513,-16.486c-0.821,-5.893 -4.281,-11.952 -8.805,-15.813c-0.033,-0.028 -12.677,-5.322 -12.719,-5.328c-14.947,-2.267 -24.47,-15.145 -28.871,-12.986c-12.037,5.905 -8.816,4.448 -12.364,0.391c-2.976,-3.403 -9.2,-2.488 -13.614,-3.133c-2.444,-0.358 -5.109,-0.551 -7.24,-1.279c-2.834,-0.967 -5.918,-4.637 -8.862,-5.498c-5.413,-1.584 -7.997,1.062 -13.593,0.425c-4.53,-0.515 -11.75,-3.634 -16.224,-2.718c-3.364,0.689 -8.747,0.52 -12.189,0.167c-2.381,-0.244 -4.96,2.019 -7.275,1.341c-6.156,-1.801 -16.378,2.606 -22.376,4.126c-1.387,0.351 -4.72,0.332 -10.895,3.582c-3.567,1.877 -9.83,1.477 -12.503,3.369c-4.272,3.024 -7.072,3.027 -8.042,7.003c-0.158,0.645 -3.475,3.596 -3.475,4.246c-0,2.273 1.014,8.308 0.304,9.762c-0.497,1.017 -1.456,5.144 -1.819,6.261c-1.401,4.304 0.391,4.583 2.276,8.445c0.286,0.584 0.361,4.838 0.366,9.125c0.003,2.355 0.449,5.103 0.194,6.225c-0.449,1.973 4.838,8.998 7.207,8.817c0.869,-0.066 2.657,0.778 3.472,1.195c3.188,1.633 6.694,4.08 10.525,5.201c0.416,0.122 5.514,3.037 6.103,3.64c2.896,2.967 3.269,4.482 6.512,6.972c1.386,1.065 7.164,1.636 8.193,2.689c1.778,1.821 4.986,5.586 7.952,6.599c3.623,1.237 7.365,3.283 11.017,2.076c4.712,-1.557 9.198,3.357 15.264,2.736c6.743,-0.691 7.356,-1.796 8.828,-1.785c4.491,0.032 12.282,-0.521 16.457,-0.521c2.626,0 14.395,-0.103 17.354,0.957c4.072,1.459 8.032,0.533 7.95,0.481c-0.927,-0.586 7.838,-4.649 18.623,-0.803c5.667,2.021 24.145,-3.739 29.442,-5.428Z"/></svg>