<?xml version="1.0" encoding="UTF-8" standalone="no"?><!DOCTYPE svg PUBLIC "-//W3C//DTD SVG 1.1//EN" "http://www.w3.org/Graphics/SVG/1.1/DTD/svg11.dtd"><svg width="100%" height="100%" viewBox="0 0 401 284" version="1.1" xmlns="http://www.w3.org/2000/svg" xmlns:xlink="http://www.w3.org/1999/xlink" xml:space="preserve" xmlns:serif="http://www.serif.com/" style="fill-rule:evenodd;clip-rule:evenodd;stroke-linejoin:round;stroke-miterlimit:2;"><path d="M200.888,0.54c110.383,0 200,63.372 200,141.429c-0,78.057 -89.617,141.43 -200,141.43c-110.383,-0 -200,-63.373 -200,-141.43c-0,-78.057 89.617,-141.429 200,-141.429Zm77.422,185.225c6.175,-2.964 1.477,-6.263 10.455,-11.401c4.646,-2.66 8.579,-6.25 11.841,-10.842c1.296,-1.826 1.605,-15.81 1.256,-17.956c-0.472,-2.907 -0.132,-5.694 -0.541,-8.626c-0.828,-5.942 -2.572,-13.362 -7.823,-16.323c-3.957,-2.233 -9.536,1.266 -13.125,-3.12c-11.228,-13.721 -11.5,-11.912 -28.386,-14.795c-4.044,-0.69 -10.497,2.742 -14.129,0.901c-4.278,-2.167 -9.054,-3.69 -9.188,-3.708c-2.352,-0.326 -8.558,-1.102 -10.591,-1.796c-2.857,-0.975 -6.738,-2.353 -9.706,-3.221c-5.457,-1.597 -7.291,-1.252 -12.933,-1.894c-4.567,-0.52 -11.846,-3.664 -16.357,-2.74c-3.391,0.694 -8.819,0.523 -12.289,0.168c-0.781,-0.08 -6.919,5.209 -13.959,4.495c-6.104,-0.618 -13.926,1.242 -15.935,1.017c-3.314,-0.373 -18.976,-0.168 -21.032,5.975c-1.698,5.075 -12.529,6.336 -13.507,10.344c-0.159,0.651 0.201,2.552 0.201,3.207c-0,2.292 -0.807,10.044 -1.523,11.51c-0.5,1.026 -0.828,2.282 -0.867,3.468c-0.124,3.797 0.409,13.561 -0.239,14.838c-0.845,1.665 1.769,8.719 3.336,10.324c1.7,1.741 3.327,3.872 5.038,5.624c0.874,0.896 4.669,2.878 5.491,3.299c3.214,1.646 6.749,4.113 10.612,5.243c0.419,0.123 3.163,1.506 3.757,2.115c2.92,2.99 5.691,6.073 8.96,8.584c1.398,1.074 7.594,7.993 9.011,8.417c3.044,0.912 11.302,5.144 14.983,3.927c4.751,-1.571 10.389,0.554 10.525,0.694c0.642,0.657 7.083,-1.722 7.679,-1.416c5.682,2.915 7.992,0.783 9.476,0.794c4.528,0.033 14.024,-1.163 18.233,-1.163c2.647,0 22.772,1.713 23.87,2.087c0.643,0.22 4.233,-0.041 8.889,-0.566c2.657,-0.3 5.17,-1.751 8.915,-0.569c0.32,0.101 0.644,0.21 0.971,0.326c5.714,2.038 23.574,-4.793 28.631,-7.221Z"/></svg>