<?xml version="1.0" encoding="UTF-8" standalone="no"?><!DOCTYPE svg PUBLIC "-//W3C//DTD SVG 1.1//EN" "http://www.w3.org/Graphics/SVG/1.1/DTD/svg11.dtd"><svg width="100%" height="100%" viewBox="0 0 401 284" version="1.1" xmlns="http://www.w3.org/2000/svg" xmlns:xlink="http://www.w3.org/1999/xlink" xml:space="preserve" xmlns:serif="http://www.serif.com/" style="fill-rule:evenodd;clip-rule:evenodd;stroke-linejoin:round;stroke-miterlimit:2;"><path d="M200.888,0.54c110.383,0 200,63.372 200,141.429c-0,78.057 -89.617,141.43 -200,141.43c-110.383,-0 -200,-63.373 -200,-141.43c-0,-78.057 89.617,-141.429 200,-141.429Zm77.465,184.711c2.674,-0.839 2.096,-7.671 11.009,-12.69c4.613,-2.598 4.255,-6.612 7.493,-11.098c1.287,-1.783 2.912,-4.547 4.14,-5.783c1.556,-1.566 0.92,-9.387 0.574,-11.484c-0.469,-2.838 1.421,-6.453 -0.369,-8.716c-3.517,-4.445 -6.042,-10.883 -8.813,-15.573c-0.022,-0.036 -13.802,-2.041 -13.834,-2.068c-13.3,-11.134 -11.028,-13.152 -27.793,-15.967c-4.014,-0.675 -8.878,1.934 -12.893,2.339c-4.448,0.448 -8.69,-4.404 -13.108,-5.04c-2.446,-0.352 -5.112,-0.542 -7.246,-1.259c-2.836,-0.952 -5.923,-4.566 -8.87,-5.415c-5.418,-1.56 -8.004,1.046 -13.605,0.419c-4.533,-0.507 -11.76,-3.579 -16.238,-2.676c-3.367,0.678 -8.755,0.511 -12.2,0.164c-2.382,-0.24 -4.964,1.988 -7.281,1.321c-6.161,-1.774 -16.583,6.574 -22.396,4.063c-3.036,-1.311 -18.839,-0.164 -20.881,5.837c-1.686,4.957 -12.438,6.189 -13.409,10.104c-0.158,0.635 -0.656,1.342 -0.656,1.982c0,2.239 0.055,10.96 -0.656,12.393c-0.497,1.001 -0.497,2.287 -0.861,3.387c-1.401,4.238 -0.534,6.812 1.353,10.616c0.442,0.891 0.498,2.732 1.189,3.428c1.286,1.296 -1.023,8.966 0.533,10.534c1.687,1.7 3.302,3.782 5.001,5.493c0.868,0.875 8.25,3.968 8.5,4.852c0.924,3.282 9.556,5.754 11.217,5.558c4.071,-0.482 4.744,7.175 8.053,9.539c2.978,2.128 7.5,1.911 11.828,2.743c7.987,1.534 23.147,8.701 23.283,8.837c0.637,0.642 7.032,-1.681 7.623,-1.383c5.641,2.848 7.934,0.766 9.408,0.776c4.495,0.032 13.945,3.39 18.123,3.39c2.628,-0 15.728,-6.411 17.022,-5.107c0.703,0.708 8.331,4.568 11.59,3.983c2.233,-0.401 2.908,-5.941 13.702,-2.153c5.672,1.991 24.166,-3.682 29.468,-5.346Z"/></svg>