<?xml version="1.0" encoding="UTF-8" standalone="no"?><!DOCTYPE svg PUBLIC "-//W3C//DTD SVG 1.1//EN" "http://www.w3.org/Graphics/SVG/1.1/DTD/svg11.dtd"><svg width="100%" height="100%" viewBox="0 0 401 284" version="1.1" xmlns="http://www.w3.org/2000/svg" xmlns:xlink="http://www.w3.org/1999/xlink" xml:space="preserve" xmlns:serif="http://www.serif.com/" style="fill-rule:evenodd;clip-rule:evenodd;stroke-linejoin:round;stroke-miterlimit:2;"><path d="M200.888,0.54c110.383,0 200,63.372 200,141.429c-0,78.057 -89.617,141.43 -200,141.43c-110.383,-0 -200,-63.373 -200,-141.43c-0,-78.057 89.617,-141.429 200,-141.429Zm77.913,186.977c2.59,-2 4.415,-5.201 6.676,-6.783c2.81,-1.965 5.998,-2.493 8.702,-7.585c3.067,-5.777 -0.619,-5.433 2.641,-9.992c1.296,-1.813 2.932,-4.622 4.168,-5.878c1.567,-1.592 0.927,-9.54 0.578,-11.672c-0.472,-2.885 0.037,-5.947 -0.371,-8.858c-0.828,-5.899 -4.314,-11.963 -8.873,-15.828c-0.033,-0.027 -13.888,-2.088 -13.928,-2.102c-17.509,-6.283 -12.471,-8.146 -22.634,-15.329c-0.101,-0.071 -14.285,1.066 -18.327,1.477c-4.478,0.456 -8.749,-4.475 -13.197,-5.121c-2.462,-0.358 -5.147,-0.551 -7.295,-1.28c-2.855,-0.968 -5.357,-1.81 -8.324,-2.673c-5.454,-1.585 -8.99,-4.641 -14.629,-5.279c-4.564,-0.516 -11.514,-0.763 -16.022,0.154c-3.39,0.69 -8.814,0.52 -12.283,0.167c-2.398,-0.244 -4.997,2.021 -7.33,1.342c-6.203,-1.802 -16.695,6.682 -22.548,4.13c-3.056,-1.333 -14.261,3.315 -20.102,7.785c-4.188,3.204 -12.954,6.254 -13.931,10.232c-0.159,0.646 -1.149,-0.451 -1.149,0.2c0,2.275 0.055,11.139 -0.66,12.595c-0.501,1.018 -0.083,6.937 1.817,10.802c0.445,0.906 -0.82,6.207 -0.125,6.915c1.295,1.317 -1.03,9.112 0.536,10.705c1.699,1.729 3.325,3.844 5.035,5.584c0.874,0.889 1.937,1.425 2.806,2.309c0.622,0.632 1.862,0.548 2.683,0.966c3.212,1.634 6.746,4.083 10.606,5.206c0.419,0.121 1.405,0.463 1.651,0.713c0.592,0.603 1.511,0.782 2.105,1.386c2.918,2.969 5.688,6.029 8.955,8.522c1.397,1.066 7.219,1.637 8.256,2.691c1.792,1.823 5.024,5.592 8.013,6.606c3.651,1.238 4.625,0.643 9.283,1.545c4.903,0.949 9.297,2.16 13.837,2.577c5.791,0.532 10.105,-3.228 11.589,-3.217c4.526,0.032 13.245,3.427 17.451,3.343c3.818,-0.077 15.984,-2.108 17.288,-0.782c0.707,0.72 6.914,0.109 8.011,0.481c1.041,0.353 7.898,-4.653 18.765,-0.803c5.711,2.023 25.825,-1.815 30.276,-5.251Z"/></svg>