<?xml version="1.0" encoding="UTF-8" standalone="no"?><!DOCTYPE svg PUBLIC "-//W3C//DTD SVG 1.1//EN" "http://www.w3.org/Graphics/SVG/1.1/DTD/svg11.dtd"><svg width="100%" height="100%" viewBox="0 0 401 284" version="1.1" xmlns="http://www.w3.org/2000/svg" xmlns:xlink="http://www.w3.org/1999/xlink" xml:space="preserve" xmlns:serif="http://www.serif.com/" style="fill-rule:evenodd;clip-rule:evenodd;stroke-linejoin:round;stroke-miterlimit:2;"><path d="M200.888,0.54c110.383,0 200,63.372 200,141.429c-0,78.057 -89.617,141.43 -200,141.43c-110.383,-0 -200,-63.373 -200,-141.43c-0,-78.057 89.617,-141.429 200,-141.429Zm76.747,186.774c1.406,-0.638 15.433,-8.578 16.245,-13.602c0.822,-5.085 3.423,-12.118 6.513,-16.594c4.677,-6.775 -1.969,-15.573 -2.997,-19.058c-1.693,-5.735 -5.386,-7.918 -7.672,-15.349c-1.308,-4.249 -15.694,-11.984 -19.331,-12.015c-2.662,-0.022 -4.481,0.048 -11.37,-3.183c-2.454,-1.151 -4.377,-4.21 -8.766,-4.971c-4.002,-0.693 -7.657,-3.346 -11.66,-2.937c-4.435,0.453 -9.857,0.804 -14.262,0.149c-2.438,-0.362 -5.097,-0.56 -7.223,-1.294c-2.827,-0.976 -5.901,-4.673 -8.837,-5.543c-5.401,-1.599 -7.982,1.06 -13.566,0.413c-4.519,-0.524 -11.721,-3.669 -16.187,-2.752c-3.358,0.689 -8.73,0.512 -12.165,0.154c-2.375,-0.248 -4.951,2.025 -7.261,1.341c-3.361,-0.996 -7.611,2.335 -12.071,4.019c-3.688,1.392 -7.641,1.271 -10.264,0.107c-3.025,-1.343 -13.484,4.881 -20.111,7.736c-4.841,2.087 -12.182,2.217 -14.096,8.512c-0.194,0.639 0.833,10.752 0.123,12.215c-0.497,1.023 -1.945,4.806 -2.309,5.929c-1.403,4.329 -0.541,6.96 1.336,10.848c0.44,0.911 0.494,2.792 1.182,3.504c1.28,1.325 -1.385,9.637 0.519,10.762c1.731,1.023 9.655,7.715 10.412,8.916c1.94,3.079 6.676,4.113 10.498,5.245c0.415,0.123 1.39,0.468 1.634,0.72c0.586,0.606 1.495,0.787 2.083,1.395c2.887,2.987 5.626,6.067 8.859,8.577c1.382,1.073 5.279,3.674 6.304,4.735c1.773,1.834 6.838,3.605 9.798,4.628c3.614,1.248 3.989,4.191 7.634,2.981c4.705,-1.562 10.282,0.565 10.417,0.704c0.635,0.657 7.013,-1.71 7.603,-1.404c5.621,2.915 7.91,0.791 9.379,0.803c4.482,0.038 14.046,-2.288 18.212,-2.283c2.62,0.003 12.138,2.402 15.528,2.76c7.475,0.79 6.859,-3.03 14.046,-3.069c4.219,-0.022 5.057,4.768 12.473,2.775c8.756,-2.354 24.264,-3.566 29.35,-5.874Z"/></svg>