<?xml version="1.0" encoding="UTF-8" standalone="no"?><!DOCTYPE svg PUBLIC "-//W3C//DTD SVG 1.1//EN" "http://www.w3.org/Graphics/SVG/1.1/DTD/svg11.dtd"><svg width="100%" height="100%" viewBox="0 0 401 284" version="1.1" xmlns="http://www.w3.org/2000/svg" xmlns:xlink="http://www.w3.org/1999/xlink" xml:space="preserve" xmlns:serif="http://www.serif.com/" style="fill-rule:evenodd;clip-rule:evenodd;stroke-linejoin:round;stroke-miterlimit:2;"><path d="M200.888,0.54c110.383,0 200,63.372 200,141.429c-0,78.057 -89.617,141.43 -200,141.43c-110.383,-0 -200,-63.373 -200,-141.43c-0,-78.057 89.617,-141.429 200,-141.429Zm79.372,186.984c2.627,-0.851 2.915,-9.115 11.681,-14.223c4.536,-2.643 3.465,-16.803 4.674,-18.063c1.531,-1.596 5.811,-7.07 5.476,-9.213c-0.454,-2.901 -2.827,-6.372 -3.219,-9.3c-0.793,-5.932 -4.179,-12.036 -8.617,-15.932c-0.032,-0.028 -13.551,-2.119 -13.583,-2.146c-13.035,-11.408 -10.799,-13.464 -27.257,-16.38c-3.941,-0.699 -8.725,1.955 -12.669,2.359c-4.369,0.448 -8.524,-4.519 -12.862,-5.18c-2.401,-0.365 -5.02,-0.565 -7.113,-1.303c-2.783,-0.98 -7.931,-4.284 -10.823,-5.158c-5.317,-1.607 -5.739,0.655 -11.239,0.001c-4.451,-0.53 -11.541,-3.685 -15.942,-2.773c-3.308,0.685 -8.6,0.502 -11.982,0.139c-2.34,-0.251 -4.88,2.02 -7.155,1.333c-2.357,-0.713 -6.402,2.474 -9.206,4.333c-4.593,3.046 -9.286,1.785 -12.8,-0.235c-2.844,-1.634 -18.503,-0.211 -20.522,5.915c-1.668,5.061 -12.231,6.295 -13.195,10.292c-0.156,0.649 -0.647,1.37 -0.649,2.024c-0.005,2.288 0.027,11.199 -0.674,12.661c-0.491,1.022 -3.306,3.616 -2.728,4.632c2.463,4.327 3.263,5.786 3.177,9.677c-0.023,1.017 0.482,2.793 1.159,3.505c1.26,1.328 -1.026,9.159 0.497,10.764c1.654,1.741 3.235,3.872 4.899,5.625c0.85,0.896 1.886,1.437 2.732,2.328c0.604,0.637 1.814,0.555 2.614,0.977c3.131,1.65 6.571,4.121 10.335,5.258c0.408,0.124 3.081,1.511 3.658,2.119c2.84,2.992 5.523,6.092 8.716,8.589c1.316,1.028 6.89,1.508 8.048,2.724c1.746,1.834 4.888,5.633 7.801,6.659c3.559,1.253 3.925,4.197 7.517,2.992c4.636,-1.557 10.128,0.577 10.261,0.717c0.624,0.657 6.91,-1.702 7.49,-1.396c5.533,2.923 7.791,0.801 9.238,0.815c4.415,0.043 13.839,-2.271 17.943,-2.261c2.581,0.006 14.024,1.444 15.292,2.78c0.689,0.725 6.745,0.126 7.814,0.502c1.015,0.357 7.717,-4.659 18.309,-0.764c3.55,1.306 11.36,-3.43 18.534,-5.392c4.075,-1.114 12.482,0.61 14.37,-0.001Z"/></svg>