<?xml version="1.0" encoding="UTF-8" standalone="no"?><!DOCTYPE svg PUBLIC "-//W3C//DTD SVG 1.1//EN" "http://www.w3.org/Graphics/SVG/1.1/DTD/svg11.dtd"><svg width="100%" height="100%" viewBox="0 0 401 284" version="1.1" xmlns="http://www.w3.org/2000/svg" xmlns:xlink="http://www.w3.org/1999/xlink" xml:space="preserve" xmlns:serif="http://www.serif.com/" style="fill-rule:evenodd;clip-rule:evenodd;stroke-linejoin:round;stroke-miterlimit:2;"><path d="M200.888,0.54c110.383,0 200,63.372 200,141.429c-0,78.057 -89.617,141.43 -200,141.43c-110.383,-0 -200,-63.373 -200,-141.43c-0,-78.057 89.617,-141.429 200,-141.429Zm83.951,185.721c2.683,-0.854 2.841,-6.845 7.656,-15.988c1.43,-2.714 7.602,-5.52 9.307,-9.479c0.74,-1.716 -2.238,-3.656 -2.13,-5.029c0.261,-3.315 3.075,-5.065 2.13,-9.251c-1.79,-7.927 -4.389,-17.239 -7.364,-19.772c-0.033,-0.027 -13.701,-8.383 -13.733,-8.411c-13.35,-11.331 -11.754,-12.626 -26.438,-13.589c-6.154,-0.404 -9.036,-4.771 -12.544,-5.41c-4.417,-0.804 -10.58,0.648 -15.015,0c-2.455,-0.358 -13.219,-5.929 -16.176,-6.792c-5.439,-1.587 -8.035,1.065 -13.657,0.427c-4.551,-0.517 -11.805,-3.643 -16.3,-2.724c-3.379,0.69 -17.228,2.19 -19.555,1.511c-6.184,-1.805 -16.644,6.69 -22.48,4.135c-3.047,-1.334 -18.91,-0.166 -20.959,5.94c-1.693,5.045 -12.486,6.299 -13.46,10.283c-0.159,0.647 -0.659,1.367 -0.659,2.018c0,2.279 -4.44,11.235 -3.584,12.612c2.752,4.43 1.35,19.064 2.043,19.772c1.291,1.319 3.454,5.432 5.015,7.028c1.694,1.73 5.83,6.367 6.697,7.252c0.619,0.633 1.066,2.861 1.885,3.279c3.203,1.637 9.697,4.7 13.414,6.2c3.541,1.428 7.31,7.266 9.834,9.649c1.279,1.208 5.907,0.808 8.231,2.695c1.982,1.608 5.009,5.599 7.99,6.614c3.639,1.24 3.888,2.284 7.689,2.962c6.387,1.139 25.208,1.92 27.583,0.071c3.936,-3.062 14.139,-2.294 18.333,-2.294c2.638,-0 14.337,1.405 15.636,2.732c0.705,0.721 6.894,0.109 7.987,0.481c1.038,0.354 8.032,1.802 19.175,-0.99c5.108,-1.28 12.572,-0.503 17.747,-2.223c5.494,-1.827 13.215,-2.918 15.702,-3.709Z"/></svg>