<?xml version="1.0" encoding="UTF-8" standalone="no"?><!DOCTYPE svg PUBLIC "-//W3C//DTD SVG 1.1//EN" "http://www.w3.org/Graphics/SVG/1.1/DTD/svg11.dtd"><svg width="100%" height="100%" viewBox="0 0 401 284" version="1.1" xmlns="http://www.w3.org/2000/svg" xmlns:xlink="http://www.w3.org/1999/xlink" xml:space="preserve" xmlns:serif="http://www.serif.com/" style="fill-rule:evenodd;clip-rule:evenodd;stroke-linejoin:round;stroke-miterlimit:2;"><path d="M200.888,0.54c110.383,0 200,63.372 200,141.429c-0,78.057 -89.617,141.43 -200,141.43c-110.383,-0 -200,-63.373 -200,-141.43c-0,-78.057 89.617,-141.429 200,-141.429Zm77.436,185.245c2.677,-0.843 6.974,-8.977 15.898,-14.019c4.618,-2.609 -0.616,-5.368 2.627,-9.874c1.288,-1.791 2.916,-4.567 4.145,-5.808c1.558,-1.573 0.921,-9.428 0.574,-11.534c-0.469,-2.851 0.037,-5.877 -0.369,-8.754c-0.823,-5.829 -4.29,-11.821 -8.824,-15.641c-0.032,-0.027 -13.568,-5.894 -13.6,-5.921c-13.316,-11.183 -10.361,-9.213 -27.146,-12.041c-4.019,-0.677 -9.822,1.79 -13.842,2.197c-4.453,0.45 -8.7,-4.423 -13.124,-5.062c-2.449,-0.354 -5.119,-0.544 -7.255,-1.264c-2.839,-0.957 -5.931,-4.587 -8.881,-5.439c-5.424,-1.567 -8.247,-0.516 -13.855,-1.146c-4.539,-0.51 -11.542,-2.028 -16.025,-1.121c-3.371,0.681 -8.766,0.513 -12.215,0.165c-2.386,-0.242 -4.97,1.996 -7.291,1.326c-6.168,-1.781 -16.603,6.603 -22.424,4.081c-3.039,-1.317 -18.862,-0.164 -20.906,5.862c-1.688,4.979 -12.453,6.216 -13.426,10.148c-0.158,0.639 -0.657,1.349 -0.657,1.992c0,2.248 1.875,7.127 1.164,8.565c-0.498,1.006 -2.318,6.179 -2.682,7.283c-1.404,4.257 0.823,5.214 2.712,9.034c0.443,0.894 -0.859,4.373 -0.167,5.072c1.287,1.302 -1.024,9.005 0.533,10.58c1.69,1.707 3.307,3.798 5.007,5.517c0.87,0.879 2.911,-1.053 3.775,-0.179c0.618,0.624 0.867,3.003 1.684,3.415c3.195,1.615 6.709,4.036 10.548,5.145c0.417,0.12 3.144,1.477 3.735,2.074c2.902,2.934 5.656,5.959 8.906,8.422c1.389,1.054 7.18,1.618 8.21,2.66c1.782,1.801 4.997,5.525 7.97,6.527c3.63,1.223 4.011,4.116 7.67,2.923c4.722,-1.541 18.009,0.194 18.602,0.494c5.647,2.86 7.436,-0.434 8.911,-0.423c4.501,0.032 14.103,-2.265 18.287,-2.265c2.631,-0 14.3,1.386 15.596,2.696c0.704,0.712 8.951,-0.907 10.018,-0.475c1.497,0.606 6.985,-1.243 17.793,2.561c5.679,2 23.015,-6.102 28.324,-7.773Z"/></svg>