<?xml version="1.0" encoding="UTF-8" standalone="no"?><!DOCTYPE svg PUBLIC "-//W3C//DTD SVG 1.1//EN" "http://www.w3.org/Graphics/SVG/1.1/DTD/svg11.dtd"><svg width="100%" height="100%" viewBox="0 0 401 284" version="1.1" xmlns="http://www.w3.org/2000/svg" xmlns:xlink="http://www.w3.org/1999/xlink" xml:space="preserve" xmlns:serif="http://www.serif.com/" style="fill-rule:evenodd;clip-rule:evenodd;stroke-linejoin:round;stroke-miterlimit:2;"><path d="M200.888,0.54c110.383,0 200,63.372 200,141.429c-0,78.057 -89.617,141.43 -200,141.43c-110.383,-0 -200,-63.373 -200,-141.43c-0,-78.057 89.617,-141.429 200,-141.429Zm77.465,187.03c2.674,-0.86 6.965,-9.156 15.878,-14.297c4.613,-2.661 -0.614,-5.476 2.624,-10.071c1.287,-1.827 2.912,-4.658 4.14,-5.924c1.556,-1.604 0.92,-9.615 0.574,-11.763c-0.469,-2.908 -3.592,-4.936 -3.998,-7.87c-0.822,-5.945 -0.655,-13.115 -5.184,-17.011c-0.032,-0.028 -13.797,-2.099 -13.834,-2.118c-15.778,-8.268 -12.779,-11.119 -27.793,-16.357c-3.855,-1.345 -8.658,0.764 -12.893,2.396c-4.188,1.613 -8.69,-4.511 -13.108,-5.162c-2.446,-0.361 -5.112,-0.555 -7.246,-1.29c-2.836,-0.975 -5.923,-4.678 -8.87,-5.547c-5.418,-1.598 -8.004,1.072 -13.605,0.429c-4.533,-0.52 -11.76,-3.666 -16.238,-2.741c-3.367,0.695 -17.164,2.205 -19.481,1.521c-6.161,-1.817 -15.845,2.176 -22.396,4.162c-3.169,0.961 -18.839,-0.168 -20.881,5.979c-1.686,5.078 -12.438,6.34 -13.409,10.35c-0.158,0.651 0.734,3.551 0.734,4.207c-0,2.293 -1.335,9.051 -2.046,10.518c-0.497,1.027 -0.497,2.344 -0.861,3.47c-1.401,4.341 -0.534,6.979 1.353,10.875c0.442,0.912 0.498,2.799 1.189,3.512c1.286,1.327 -1.023,9.184 0.533,10.79c1.687,1.741 3.302,3.874 5.001,5.627c0.868,0.896 1.219,1.689 2.082,2.58c0.617,0.637 0.485,1.246 1.301,1.667c3.191,1.647 8.769,3.17 12.603,4.3c0.417,0.123 3.012,-0.857 3.256,-0.605c0.588,0.608 2.728,2.192 3.318,2.801c2.899,2.992 4.044,4.307 7.29,6.82c1.387,1.074 5.933,3.339 6.962,4.402c1.78,1.837 4.99,5.636 7.96,6.657c3.626,1.248 4.005,4.199 7.66,2.981c4.717,-1.571 17.481,-1.028 18.072,-0.722c5.641,2.916 11.816,0.062 13.29,0.073c4.495,0.033 10.203,-1.588 14.381,-1.588c2.628,-0 14.283,1.414 15.577,2.75c0.703,0.726 6.868,0.11 7.957,0.484c1.034,0.356 7.846,-4.689 18.64,-0.809c5.672,2.039 24.166,-3.772 29.468,-5.476Z"/></svg>