<?xml version="1.0" encoding="UTF-8" standalone="no"?><!DOCTYPE svg PUBLIC "-//W3C//DTD SVG 1.1//EN" "http://www.w3.org/Graphics/SVG/1.1/DTD/svg11.dtd"><svg width="100%" height="100%" viewBox="0 0 401 284" version="1.1" xmlns="http://www.w3.org/2000/svg" xmlns:xlink="http://www.w3.org/1999/xlink" xml:space="preserve" xmlns:serif="http://www.serif.com/" style="fill-rule:evenodd;clip-rule:evenodd;stroke-linejoin:round;stroke-miterlimit:2;"><path d="M200.888,0.54c110.383,0 200,63.372 200,141.429c-0,78.057 -89.617,141.43 -200,141.43c-110.383,-0 -200,-63.373 -200,-141.43c-0,-78.057 89.617,-141.429 200,-141.429Zm77.436,187.03c2.673,-0.86 6.964,-9.156 15.876,-14.297c4.612,-2.661 -0.615,-5.476 2.623,-10.071c1.287,-1.827 2.912,-4.658 4.139,-5.924c1.556,-1.604 0.92,-9.615 0.574,-11.763c-0.469,-2.908 0.037,-5.994 -0.369,-8.929c-0.822,-5.945 -4.284,-12.056 -8.812,-15.952c-0.032,-0.028 -13.799,-2.091 -13.832,-2.118c-13.297,-11.406 -11.026,-13.473 -27.787,-16.357c-4.014,-0.691 -8.878,1.982 -12.892,2.396c-4.446,0.459 -8.688,-4.511 -13.105,-5.162c-2.446,-0.361 -5.112,-0.555 -7.245,-1.29c-2.836,-0.975 -7.854,-2.753 -10.8,-3.622c-5.417,-1.598 -6.071,-0.853 -11.671,-1.496c-4.533,-0.52 -11.759,-3.666 -16.236,-2.741c-3.366,0.695 -8.754,0.524 -12.198,0.168c-2.382,-0.246 -4.963,2.037 -7.28,1.353c-6.16,-1.817 -16.58,6.734 -22.392,4.162c-3.035,-1.343 -18.836,-0.168 -20.877,5.979c-1.686,5.078 -12.436,6.34 -13.408,10.35c-0.157,0.651 -0.655,1.375 -0.655,2.031c-0,2.293 0.054,11.227 -0.656,12.694c-0.497,1.027 -0.497,2.344 -0.861,3.47c-1.401,4.341 -0.534,6.979 1.353,10.875c0.442,0.912 0.498,2.799 1.188,3.512c1.286,1.327 -1.022,9.184 0.533,10.79c1.687,1.741 3.302,3.874 5,5.627c0.868,0.896 1.924,1.436 2.787,2.327c0.617,0.637 1.849,0.553 2.664,0.974c3.191,1.647 6.699,4.116 10.533,5.246c0.416,0.123 1.395,0.467 1.64,0.72c0.588,0.607 1.5,0.787 2.09,1.396c2.898,2.992 5.649,6.077 8.894,8.59c1.387,1.074 7.169,1.649 8.199,2.712c1.779,1.837 4.989,5.636 7.958,6.657c3.625,1.248 5.833,1.961 9.487,0.744c4.716,-1.572 8.484,2.792 8.619,2.931c0.637,0.658 7.031,-1.722 7.622,-1.416c5.64,2.916 7.933,0.784 9.406,0.794c4.495,0.033 14.083,-2.309 18.261,-2.309c2.627,-0 14.28,1.414 15.574,2.75c0.703,0.726 6.867,0.11 7.956,0.484c1.034,0.356 7.844,-4.689 18.636,-0.809c5.672,2.039 24.163,-3.772 29.464,-5.476Z"/></svg>