<?xml version="1.0" encoding="UTF-8" standalone="no"?><!DOCTYPE svg PUBLIC "-//W3C//DTD SVG 1.1//EN" "http://www.w3.org/Graphics/SVG/1.1/DTD/svg11.dtd"><svg width="100%" height="100%" viewBox="0 0 401 284" version="1.1" xmlns="http://www.w3.org/2000/svg" xmlns:xlink="http://www.w3.org/1999/xlink" xml:space="preserve" xmlns:serif="http://www.serif.com/" style="fill-rule:evenodd;clip-rule:evenodd;stroke-linejoin:round;stroke-miterlimit:2;"><path d="M200.888,0.54c110.383,0 200,63.372 200,141.429c-0,78.057 -89.617,141.43 -200,141.43c-110.383,-0 -200,-63.373 -200,-141.43c-0,-78.057 89.617,-141.429 200,-141.429Zm76.326,184.453c2.643,-0.836 1.716,-6.626 10.525,-11.628c4.56,-2.588 1.339,-6.289 4.54,-10.76c1.272,-1.777 8.911,-11.976 8.568,-14.065c-0.463,-2.829 -2.259,-10.533 -1.051,-13.142c3.932,-8.494 -18.138,-19.961 -22.385,-17.579c-8.299,4.654 -11.013,-7.045 -14.672,-9.295c-2.937,-1.806 -5.35,-5.367 -12.798,-6.616c-3.969,-0.666 -8.776,1.928 -12.744,2.331c-4.396,0.446 -8.589,-4.388 -12.956,-5.022c-2.417,-0.351 -5.053,-0.54 -7.162,-1.254c-2.803,-0.949 -5.854,-4.551 -8.767,-5.396c-5.355,-1.554 -7.911,1.042 -13.447,0.417c-4.481,-0.505 -11.624,-3.566 -16.05,-2.667c-3.328,0.677 -16.965,2.145 -19.256,1.48c-6.089,-1.767 -16.39,6.551 -22.136,4.049c-3,-1.307 -18.621,-0.163 -20.638,5.816c-1.667,4.939 -6.46,5.962 -7.42,9.863c-0.156,0.633 -6.482,1.543 -6.482,2.181c-0,2.231 0.054,10.921 -0.649,12.348c-0.491,0.999 -1.377,5.845 -1.737,6.941c-1.385,4.223 2.716,9.736 3.399,10.429c1.271,1.292 -1.011,8.934 0.526,10.496c1.668,1.695 3.265,3.769 4.943,5.475c0.858,0.872 4.583,2.801 5.389,3.21c3.154,1.602 6.623,4.004 10.413,5.104c0.411,0.12 3.104,1.466 3.687,2.058c2.865,2.911 5.584,5.912 8.792,8.356c1.371,1.045 10.927,1.262 11.944,2.295c1.76,1.787 1.042,7.661 4.028,6.819c8.468,-2.386 10.206,1.398 17.282,3.399c3.52,0.995 13.649,-2.507 18.616,-2.676c4.441,-0.151 12.757,0 16.887,0c2.597,0 14.117,1.376 15.396,2.676c0.695,0.706 6.877,-0.096 7.865,0.471c4.615,2.648 16.177,0.834 18.423,-0.787c4.84,-3.493 23.887,-3.669 29.127,-5.327Z"/></svg>