<?xml version="1.0" encoding="UTF-8" standalone="no"?><!DOCTYPE svg PUBLIC "-//W3C//DTD SVG 1.1//EN" "http://www.w3.org/Graphics/SVG/1.1/DTD/svg11.dtd"><svg width="100%" height="100%" viewBox="0 0 401 284" version="1.1" xmlns="http://www.w3.org/2000/svg" xmlns:xlink="http://www.w3.org/1999/xlink" xml:space="preserve" xmlns:serif="http://www.serif.com/" style="fill-rule:evenodd;clip-rule:evenodd;stroke-linejoin:round;stroke-miterlimit:2;"><path d="M200.888,0.54c110.383,0 200,63.372 200,141.429c-0,78.057 -89.617,141.43 -200,141.43c-110.383,-0 -200,-63.373 -200,-141.43c-0,-78.057 89.617,-141.429 200,-141.429Zm77.465,187.03c2.674,-0.86 6.965,-9.156 15.878,-14.297c4.613,-2.661 -0.614,-5.476 2.624,-10.071c1.287,-1.827 2.912,-4.658 4.14,-5.924c1.556,-1.604 0.92,-9.615 0.574,-11.763c-0.469,-2.908 0.037,-5.994 -0.369,-8.929c-0.822,-5.945 -4.284,-12.056 -8.813,-15.952c-0.032,-0.028 -13.802,-2.091 -13.834,-2.118c-13.3,-11.406 -11.028,-13.473 -27.793,-16.357c-4.014,-0.691 -8.878,1.982 -12.893,2.396c-4.448,0.459 -8.69,-4.511 -13.108,-5.162c-2.446,-0.361 -5.112,-0.555 -7.246,-1.29c-2.836,-0.975 -5.923,-4.678 -8.87,-5.547c-5.418,-1.598 -8.004,1.072 -13.605,0.429c-4.533,-0.52 -11.76,-3.666 -16.238,-2.741c-3.367,0.695 -8.755,0.524 -12.2,0.168c-2.382,-0.246 -4.964,2.037 -7.281,1.353c-6.161,-1.817 -16.583,6.734 -22.396,4.162c-3.036,-1.343 -18.839,-0.168 -20.881,5.979c-1.686,5.078 -12.438,6.34 -13.409,10.35c-0.158,0.651 -0.656,1.375 -0.656,2.031c0,2.293 0.055,11.227 -0.656,12.694c-0.497,1.027 -0.497,2.344 -0.861,3.47c-1.401,4.341 -0.534,6.979 1.353,10.875c0.442,0.912 0.498,2.799 1.189,3.512c1.286,1.327 -1.023,9.184 0.533,10.79c1.687,1.741 3.302,3.874 5.001,5.627c0.868,0.896 1.923,1.436 2.787,2.327c0.617,0.637 1.849,0.553 2.665,0.974c3.191,1.647 6.7,4.116 10.534,5.246c0.417,0.123 1.396,0.467 1.64,0.72c0.588,0.607 1.501,0.787 2.091,1.396c2.899,2.992 5.649,6.077 8.895,8.59c1.388,1.074 7.171,1.649 8.2,2.712c1.78,1.837 4.99,5.636 7.96,6.657c3.626,1.248 4.005,4.199 7.66,2.981c4.717,-1.571 10.313,0.555 10.449,0.694c0.637,0.658 7.032,-1.722 7.623,-1.416c5.641,2.916 7.934,0.784 9.408,0.794c4.495,0.033 14.085,-2.309 18.263,-2.309c2.628,-0 14.283,1.414 15.577,2.75c0.703,0.726 6.868,0.11 7.957,0.484c1.034,0.356 7.846,-4.689 18.64,-0.809c5.672,2.039 24.166,-3.772 29.468,-5.476Z"/></svg>